<svg xmlns="http://www.w3.org/2000/svg" viewBox="0 0 32 32">
  <style>
    .bg-dark { opacity: 1; }
    .bg-light { opacity: 0; }
    .text-light { opacity: 1; }
    .text-dark { opacity: 0; }
    @media (prefers-color-scheme: dark) {
      .bg-dark { opacity: 0; }
      .bg-light { opacity: 1; }
      .text-light { opacity: 0; }
      .text-dark { opacity: 1; }
    }
  </style>
  
  <rect class="bg-dark" width="32" height="32" rx="4" fill="#0c0a09"/>
  <rect class="bg-light" width="32" height="32" rx="4" fill="#fafafa"/>
  
    <path d="M 2.0 16.0L 7.3 2.9L 7.3 6.0L 4.2 16.0L 7.3 26.0L 7.3 29.1L 2.0 16.0Z" fill="#f59e0b"/>
    <path d="M 30.0 16.0L 24.7 2.9L 24.7 6.0L 27.8 16.0L 24.7 26.0L 24.7 29.1L 30.0 16.0Z" fill="#f59e0b"/>
  
  <g class="text-light">
    <path d="M 14.9 18.4Q 14.9 18.9 15.1 19.0Q 15.2 19.2 15.4 19.2L 15.1 20.2Q 14.7 20.2 14.3 20.0Q 13.9 19.8 13.8 19.3Q 13.4 19.7 12.9 19.9Q 12.3 20.2 11.7 20.2Q 10.7 20.2 10.1 19.6Q 9.5 19.1 9.5 18.2Q 9.5 17.1 10.4 16.6Q 11.2 16.0 12.7 16.0H 13.6V 15.6Q 13.6 15.0 13.3 14.7Q 12.9 14.4 12.2 14.4Q 11.9 14.4 11.5 14.5Q 10.9 14.6 10.5 14.7L 10.2 13.8Q 10.7 13.6 11.3 13.4Q 11.9 13.3 12.4 13.3Q 13.7 13.3 14.3 13.9Q 14.9 14.4 14.9 15.5ZM 12.1 19.2Q 12.5 19.2 13.0 19.0Q 13.3 18.7 13.6 18.3V 16.8H 12.9Q 11.9 16.8 11.5 17.2Q 11.1 17.5 11.1 18.1Q 11.1 19.2 12.1 19.2Z" fill="#fef3c7"/>
    <path d="M 22.8 12.7L 23.2 13.8Q 22.8 14.0 22.3 14.0Q 21.8 14.1 21.3 14.1Q 21.8 14.4 22.2 14.8Q 22.5 15.1 22.5 15.7Q 22.5 16.3 22.1 16.9Q 21.8 17.4 21.2 17.7Q 20.7 17.9 19.8 17.9Q 19.6 17.9 19.3 17.9Q 19.1 17.9 18.9 17.8Q 18.7 18.1 18.7 18.4Q 18.7 18.6 18.8 18.7Q 19.0 18.9 19.4 18.9H 20.6Q 21.3 18.9 21.8 19.1Q 22.4 19.3 22.7 19.7Q 23.0 20.1 23.0 20.6Q 23.0 21.6 22.2 22.1Q 21.4 22.7 19.8 22.7Q 18.7 22.7 18.1 22.4Q 17.4 22.2 17.2 21.7Q 16.9 21.2 16.9 20.5H 18.2Q 18.2 20.9 18.3 21.1Q 18.6 21.4 18.9 21.5Q 19.3 21.6 20.0 21.6Q 21.0 21.6 21.5 21.3Q 21.9 21.0 21.9 20.5Q 21.9 20.1 21.5 19.9Q 21.1 19.6 20.5 19.6H 19.3Q 18.4 19.6 17.9 19.3Q 17.5 18.9 17.5 18.3Q 17.5 17.6 18.2 17.2Q 17.6 16.8 17.4 16.4Q 17.1 15.9 17.1 15.3Q 17.1 14.6 17.5 14.1Q 17.8 13.5 18.5 13.2Q 19.0 13.0 19.8 13.0Q 20.6 13.0 21.2 12.9Q 21.7 12.8 22.2 12.5Q 22.5 12.4 22.8 12.7ZM 19.8 14.3Q 19.2 14.3 18.8 14.6Q 18.4 15.0 18.4 15.6Q 18.4 16.2 18.8 16.6Q 19.2 16.9 19.8 16.9Q 20.5 16.9 20.8 16.6Q 21.1 16.2 21.1 15.6Q 21.1 14.3 19.8 14.3Z" fill="#fef3c7"/>
  </g>
  
  <g class="text-dark">
    <path d="M 14.9 18.4Q 14.9 18.9 15.1 19.0Q 15.2 19.2 15.4 19.2L 15.1 20.2Q 14.7 20.2 14.3 20.0Q 13.9 19.8 13.8 19.3Q 13.4 19.7 12.9 19.9Q 12.3 20.2 11.7 20.2Q 10.7 20.2 10.1 19.6Q 9.5 19.1 9.5 18.2Q 9.5 17.1 10.4 16.6Q 11.2 16.0 12.7 16.0H 13.6V 15.6Q 13.6 15.0 13.3 14.7Q 12.9 14.4 12.2 14.4Q 11.9 14.4 11.5 14.5Q 10.9 14.6 10.5 14.7L 10.2 13.8Q 10.7 13.6 11.3 13.4Q 11.9 13.3 12.4 13.3Q 13.7 13.3 14.3 13.9Q 14.9 14.4 14.9 15.5ZM 12.1 19.2Q 12.5 19.2 13.0 19.0Q 13.3 18.7 13.6 18.3V 16.8H 12.9Q 11.9 16.8 11.5 17.2Q 11.1 17.5 11.1 18.1Q 11.1 19.2 12.1 19.2Z" fill="#0c0a09"/>
    <path d="M 22.8 12.7L 23.2 13.8Q 22.8 14.0 22.3 14.0Q 21.8 14.1 21.3 14.1Q 21.8 14.4 22.2 14.8Q 22.5 15.1 22.5 15.7Q 22.5 16.3 22.1 16.9Q 21.8 17.4 21.2 17.7Q 20.7 17.9 19.8 17.9Q 19.6 17.9 19.3 17.9Q 19.1 17.9 18.9 17.8Q 18.7 18.1 18.7 18.4Q 18.7 18.6 18.8 18.7Q 19.0 18.9 19.4 18.9H 20.6Q 21.3 18.9 21.8 19.1Q 22.4 19.3 22.7 19.7Q 23.0 20.1 23.0 20.6Q 23.0 21.6 22.2 22.1Q 21.4 22.7 19.8 22.7Q 18.7 22.7 18.1 22.4Q 17.4 22.2 17.2 21.7Q 16.9 21.2 16.9 20.5H 18.2Q 18.2 20.9 18.3 21.1Q 18.6 21.4 18.9 21.5Q 19.3 21.6 20.0 21.6Q 21.0 21.6 21.5 21.3Q 21.9 21.0 21.9 20.5Q 21.9 20.1 21.5 19.9Q 21.1 19.6 20.5 19.6H 19.3Q 18.4 19.6 17.9 19.3Q 17.5 18.9 17.5 18.3Q 17.5 17.6 18.2 17.2Q 17.6 16.8 17.4 16.4Q 17.1 15.9 17.1 15.3Q 17.1 14.6 17.5 14.1Q 17.8 13.5 18.5 13.2Q 19.0 13.0 19.8 13.0Q 20.6 13.0 21.2 12.9Q 21.7 12.8 22.2 12.5Q 22.5 12.4 22.8 12.7ZM 19.8 14.3Q 19.2 14.3 18.8 14.6Q 18.4 15.0 18.4 15.6Q 18.4 16.2 18.8 16.6Q 19.2 16.9 19.8 16.9Q 20.5 16.9 20.8 16.6Q 21.1 16.2 21.1 15.6Q 21.1 14.3 19.8 14.3Z" fill="#0c0a09"/>
  </g>
</svg>