<svg xmlns="http://www.w3.org/2000/svg" viewBox="0 0 211 54">
  <style>
    .bg-dark { opacity: 1; }
    .bg-light { opacity: 0; }
    .text-light { opacity: 1; }
    .text-dark { opacity: 0; }
    @media (prefers-color-scheme: dark) {
      .bg-dark { opacity: 0; }
      .bg-light { opacity: 1; }
      .text-light { opacity: 0; }
      .text-dark { opacity: 1; }
    }
  </style>

  <!-- Backgrounds -->
  <rect class="bg-dark" width="211" height="54" rx="6" fill="#0c0a09"/>
  <rect class="bg-light" width="211" height="54" rx="6" fill="#fafafa"/>

  <!-- Brackets (always amber) -->
    <path d="M 14.0,27.0 L 22.200000000000003,8.8 L 22.200000000000003,13.600000000000001 L 17.4,27.0 L 22.200000000000003,40.4 L 22.200000000000003,45.2 L 14.0,27.0" fill="#f59e0b"/>
    <path d="M 57.2,27.0 L 49.0,8.8 L 49.0,13.600000000000001 L 53.800000000000004,27.0 L 49.0,40.4 L 49.0,45.2 L 57.2,27.0" fill="#f59e0b"/>

  <!-- Icon "ag" - light mode (for dark bg) -->
  <g class="text-light">
    <path d="M 33.5,30.700000000000003 Q 33.5,31.4 33.7,31.6 Q 33.9,31.9 34.3,32.0 L 33.8,33.5 Q 33.1,33.4 32.5,33.1 Q 32.0,32.8 31.700000000000003,32.1 Q 31.200000000000003,32.8 30.299999999999997,33.1 Q 29.5,33.5 28.5,33.5 Q 27.0,33.5 26.0,32.6 Q 25.1,31.799999999999997 25.1,30.4 Q 25.1,28.700000000000003 26.4,27.9 Q 27.6,27.0 30.0,27.0 L 31.4,27.0 L 31.4,26.4 Q 31.4,25.4 30.799999999999997,24.9 Q 30.200000000000003,24.5 29.200000000000003,24.5 Q 28.700000000000003,24.5 28.0,24.6 Q 27.200000000000003,24.8 26.5,25.0 L 26.0,23.5 Q 26.9,23.2 27.799999999999997,23.0 Q 28.700000000000003,22.8 29.5,22.8 Q 31.5,22.8 32.5,23.7 Q 33.5,24.6 33.5,26.2 L 33.5,30.700000000000003 M 29.1,31.9 Q 29.799999999999997,31.9 30.4,31.6 Q 31.0,31.200000000000003 31.4,30.6 L 31.4,28.299999999999997 L 30.200000000000003,28.299999999999997 Q 28.700000000000003,28.299999999999997 28.1,28.9 Q 27.4,29.4 27.4,30.299999999999997 Q 27.4,31.9 29.1,31.9" fill="#fef3c7"/>
    <path d="M 45.800000000000004,21.8 L 46.4,23.6 Q 45.800000000000004,23.8 45.1,23.9 Q 44.4,23.9 43.5,23.9 Q 44.4,24.4 44.9,25.0 Q 45.300000000000004,25.6 45.300000000000004,26.5 Q 45.300000000000004,27.5 44.800000000000004,28.299999999999997 Q 44.300000000000004,29.1 43.4,29.5 Q 42.6,29.9 41.300000000000004,29.9 Q 40.9,29.9 40.5,29.9 Q 40.2,29.9 39.9,29.799999999999997 Q 39.5,30.1 39.5,30.6 Q 39.5,30.9 39.7,31.1 Q 40.0,31.4 40.7,31.4 L 42.5,31.4 Q 43.6,31.4 44.4,31.799999999999997 Q 45.2,32.1 45.7,32.8 Q 46.2,33.4 46.2,34.2 Q 46.2,35.7 44.9,36.6 Q 43.6,37.4 41.1,37.4 Q 39.4,37.4 38.4,37.0 Q 37.4,36.6 37.0,36.0 Q 36.6,35.3 36.6,34.2 L 38.5,34.2 Q 38.5,34.8 38.7,35.1 Q 39.0,35.5 39.5,35.6 Q 40.1,35.8 41.2,35.8 Q 42.800000000000004,35.8 43.4,35.4 Q 44.0,35.0 44.0,34.3 Q 44.0,33.7 43.5,33.4 Q 42.9,33.0 42.1,33.0 L 40.300000000000004,33.0 Q 38.9,33.0 38.2,32.5 Q 37.6,31.9 37.6,31.1 Q 37.6,30.0 38.7,29.299999999999997 Q 37.800000000000004,28.799999999999997 37.300000000000004,28.1 Q 36.9,27.4 36.9,26.4 Q 36.9,25.4 37.5,24.6 Q 38.0,23.7 39.0,23.3 Q 39.9,22.8 41.2,22.8 Q 42.4,22.9 43.2,22.7 Q 44.0,22.6 44.6,22.3 Q 45.2,22.1 45.800000000000004,21.8 M 41.2,24.3 Q 40.2,24.3 39.6,24.9 Q 39.1,25.5 39.1,26.4 Q 39.1,27.4 39.6,28.0 Q 40.2,28.5 41.2,28.5 Q 42.2,28.5 42.7,28.0 Q 43.2,27.4 43.2,26.4 Q 43.2,24.3 41.2,24.3" fill="#fef3c7"/>
  </g>

  <!-- Icon "ag" - dark mode (for light bg) -->
  <g class="text-dark">
    <path d="M 33.5,30.700000000000003 Q 33.5,31.4 33.7,31.6 Q 33.9,31.9 34.3,32.0 L 33.8,33.5 Q 33.1,33.4 32.5,33.1 Q 32.0,32.8 31.700000000000003,32.1 Q 31.200000000000003,32.8 30.299999999999997,33.1 Q 29.5,33.5 28.5,33.5 Q 27.0,33.5 26.0,32.6 Q 25.1,31.799999999999997 25.1,30.4 Q 25.1,28.700000000000003 26.4,27.9 Q 27.6,27.0 30.0,27.0 L 31.4,27.0 L 31.4,26.4 Q 31.4,25.4 30.799999999999997,24.9 Q 30.200000000000003,24.5 29.200000000000003,24.5 Q 28.700000000000003,24.5 28.0,24.6 Q 27.200000000000003,24.8 26.5,25.0 L 26.0,23.5 Q 26.9,23.2 27.799999999999997,23.0 Q 28.700000000000003,22.8 29.5,22.8 Q 31.5,22.8 32.5,23.7 Q 33.5,24.6 33.5,26.2 L 33.5,30.700000000000003 M 29.1,31.9 Q 29.799999999999997,31.9 30.4,31.6 Q 31.0,31.200000000000003 31.4,30.6 L 31.4,28.299999999999997 L 30.200000000000003,28.299999999999997 Q 28.700000000000003,28.299999999999997 28.1,28.9 Q 27.4,29.4 27.4,30.299999999999997 Q 27.4,31.9 29.1,31.9" fill="#0c0a09"/>
    <path d="M 45.800000000000004,21.8 L 46.4,23.6 Q 45.800000000000004,23.8 45.1,23.9 Q 44.4,23.9 43.5,23.9 Q 44.4,24.4 44.9,25.0 Q 45.300000000000004,25.6 45.300000000000004,26.5 Q 45.300000000000004,27.5 44.800000000000004,28.299999999999997 Q 44.300000000000004,29.1 43.4,29.5 Q 42.6,29.9 41.300000000000004,29.9 Q 40.9,29.9 40.5,29.9 Q 40.2,29.9 39.9,29.799999999999997 Q 39.5,30.1 39.5,30.6 Q 39.5,30.9 39.7,31.1 Q 40.0,31.4 40.7,31.4 L 42.5,31.4 Q 43.6,31.4 44.4,31.799999999999997 Q 45.2,32.1 45.7,32.8 Q 46.2,33.4 46.2,34.2 Q 46.2,35.7 44.9,36.6 Q 43.6,37.4 41.1,37.4 Q 39.4,37.4 38.4,37.0 Q 37.4,36.6 37.0,36.0 Q 36.6,35.3 36.6,34.2 L 38.5,34.2 Q 38.5,34.8 38.7,35.1 Q 39.0,35.5 39.5,35.6 Q 40.1,35.8 41.2,35.8 Q 42.800000000000004,35.8 43.4,35.4 Q 44.0,35.0 44.0,34.3 Q 44.0,33.7 43.5,33.4 Q 42.9,33.0 42.1,33.0 L 40.300000000000004,33.0 Q 38.9,33.0 38.2,32.5 Q 37.6,31.9 37.6,31.1 Q 37.6,30.0 38.7,29.299999999999997 Q 37.800000000000004,28.799999999999997 37.300000000000004,28.1 Q 36.9,27.4 36.9,26.4 Q 36.9,25.4 37.5,24.6 Q 38.0,23.7 39.0,23.3 Q 39.9,22.8 41.2,22.8 Q 42.4,22.9 43.2,22.7 Q 44.0,22.6 44.6,22.3 Q 45.2,22.1 45.800000000000004,21.8 M 41.2,24.3 Q 40.2,24.3 39.6,24.9 Q 39.1,25.5 39.1,26.4 Q 39.1,27.4 39.6,28.0 Q 40.2,28.5 41.2,28.5 Q 42.2,28.5 42.7,28.0 Q 43.2,27.4 43.2,26.4 Q 43.2,24.3 41.2,24.3" fill="#0c0a09"/>
  </g>

  <!-- "agent" (always amber) -->
  <g>
    <path d="M 81.1,30.799999999999997 Q 81.1,31.4 81.19999999999999,31.6 Q 81.39999999999999,31.9 81.8,32.0 L 81.3,33.5 Q 80.6,33.4 80.1,33.1 Q 79.5,32.8 79.19999999999999,32.1 Q 78.69999999999999,32.8 77.8,33.1 Q 77.0,33.5 76.0,33.5 Q 74.5,33.5 73.6,32.6 Q 72.69999999999999,31.799999999999997 72.69999999999999,30.4 Q 72.69999999999999,28.700000000000003 73.89999999999999,27.9 Q 75.19999999999999,27.0 77.5,27.0 L 78.89999999999999,27.0 L 78.89999999999999,26.4 Q 78.89999999999999,25.4 78.3,24.9 Q 77.8,24.5 76.69999999999999,24.5 Q 76.19999999999999,24.5 75.5,24.6 Q 74.8,24.8 74.0,25.0 L 73.5,23.5 Q 74.39999999999999,23.2 75.3,23.0 Q 76.19999999999999,22.8 77.0,22.8 Q 79.0,22.8 80.1,23.7 Q 81.1,24.6 81.1,26.2 L 81.1,30.799999999999997 M 76.69999999999999,31.9 Q 77.3,31.9 77.89999999999999,31.6 Q 78.6,31.200000000000003 78.89999999999999,30.6 L 78.89999999999999,28.4 L 77.8,28.4 Q 76.19999999999999,28.4 75.6,28.9 Q 74.89999999999999,29.4 74.89999999999999,30.299999999999997 Q 74.89999999999999,31.9 76.69999999999999,31.9" fill="#f59e0b"/>
    <path d="M 93.39999999999999,21.8 L 93.89999999999999,23.6 Q 93.3,23.8 92.6,23.9 Q 91.89999999999999,23.9 91.0,23.9 Q 91.89999999999999,24.3 92.39999999999999,25.0 Q 92.8,25.6 92.8,26.5 Q 92.8,27.5 92.3,28.299999999999997 Q 91.89999999999999,29.1 91.0,29.5 Q 90.1,29.9 88.8,29.9 Q 88.39999999999999,29.9 88.1,29.9 Q 87.69999999999999,29.9 87.39999999999999,29.799999999999997 Q 87.0,30.1 87.0,30.6 Q 87.0,30.9 87.19999999999999,31.1 Q 87.5,31.4 88.3,31.4 L 90.0,31.4 Q 91.1,31.4 91.89999999999999,31.700000000000003 Q 92.8,32.1 93.19999999999999,32.7 Q 93.69999999999999,33.4 93.69999999999999,34.2 Q 93.69999999999999,35.7 92.39999999999999,36.5 Q 91.1,37.4 88.6,37.4 Q 86.89999999999999,37.4 85.89999999999999,37.0 Q 84.89999999999999,36.7 84.5,36.0 Q 84.1,35.3 84.1,34.2 L 86.1,34.2 Q 86.1,34.8 86.3,35.1 Q 86.5,35.5 87.0,35.6 Q 87.6,35.8 88.69999999999999,35.8 Q 90.3,35.8 90.89999999999999,35.4 Q 91.6,35.0 91.6,34.3 Q 91.6,33.7 91.0,33.4 Q 90.5,33.0 89.6,33.0 L 87.8,33.0 Q 86.39999999999999,33.0 85.69999999999999,32.5 Q 85.1,31.9 85.1,31.1 Q 85.1,30.0 86.19999999999999,29.299999999999997 Q 85.3,28.799999999999997 84.89999999999999,28.1 Q 84.5,27.4 84.5,26.4 Q 84.5,25.4 85.0,24.6 Q 85.5,23.7 86.5,23.3 Q 87.39999999999999,22.8 88.69999999999999,22.8 Q 89.89999999999999,22.9 90.69999999999999,22.7 Q 91.5,22.6 92.1,22.3 Q 92.8,22.1 93.39999999999999,21.8 M 88.69999999999999,24.3 Q 87.69999999999999,24.3 87.19999999999999,24.9 Q 86.6,25.5 86.6,26.4 Q 86.6,27.4 87.19999999999999,28.0 Q 87.69999999999999,28.5 88.69999999999999,28.5 Q 89.69999999999999,28.5 90.19999999999999,28.0 Q 90.69999999999999,27.4 90.69999999999999,26.4 Q 90.69999999999999,24.3 88.69999999999999,24.3" fill="#f59e0b"/>
    <path d="M 98.1,28.9 Q 98.19999999999999,30.4 99.0,31.1 Q 99.8,31.799999999999997 100.89999999999999,31.799999999999997 Q 101.6,31.799999999999997 102.3,31.6 Q 102.89999999999999,31.4 103.6,30.9 L 104.5,32.2 Q 103.8,32.8 102.8,33.2 Q 101.89999999999999,33.5 100.8,33.5 Q 99.19999999999999,33.5 98.1,32.8 Q 97.0,32.2 96.5,31.0 Q 95.89999999999999,29.799999999999997 95.89999999999999,28.200000000000003 Q 95.89999999999999,26.7 96.5,25.4 Q 97.0,24.2 98.1,23.5 Q 99.1,22.8 100.5,22.8 Q 102.6,22.8 103.69999999999999,24.2 Q 104.89999999999999,25.5 104.89999999999999,27.9 Q 104.89999999999999,28.200000000000003 104.89999999999999,28.4 Q 104.89999999999999,28.700000000000003 104.89999999999999,28.9 L 98.1,28.9 M 100.6,24.4 Q 99.5,24.4 98.89999999999999,25.1 Q 98.19999999999999,25.9 98.1,27.4 L 102.8,27.4 Q 102.8,26.0 102.19999999999999,25.2 Q 101.6,24.4 100.6,24.4" fill="#f59e0b"/>
    <path d="M 107.89999999999999,33.2 L 107.89999999999999,23.1 L 109.69999999999999,23.1 L 109.89999999999999,24.4 Q 110.5,23.6 111.39999999999999,23.2 Q 112.19999999999999,22.8 113.19999999999999,22.8 Q 114.6,22.8 115.3,23.6 Q 116.0,24.4 116.0,25.8 L 116.0,33.2 L 113.8,33.2 L 113.8,26.9 Q 113.8,25.6 113.6,25.0 Q 113.3,24.5 112.39999999999999,24.5 Q 111.69999999999999,24.5 111.0,24.9 Q 110.39999999999999,25.4 110.0,26.0 L 110.0,33.2 L 107.89999999999999,33.2" fill="#f59e0b"/>
    <path d="M 127.89999999999999,32.7 Q 127.3,33.1 126.5,33.3 Q 125.69999999999999,33.5 124.89999999999999,33.5 Q 123.1,33.5 122.19999999999999,32.6 Q 121.3,31.700000000000003 121.3,30.200000000000003 L 121.3,24.7 L 119.0,24.7 L 119.0,23.1 L 121.3,23.1 L 121.3,20.8 L 123.39999999999999,20.6 L 123.39999999999999,23.1 L 126.89999999999999,23.1 L 126.6,24.7 L 123.39999999999999,24.7 L 123.39999999999999,30.1 Q 123.39999999999999,31.0 123.89999999999999,31.4 Q 124.3,31.799999999999997 125.19999999999999,31.799999999999997 Q 125.8,31.799999999999997 126.19999999999999,31.6 Q 126.69999999999999,31.5 127.1,31.299999999999997 L 127.89999999999999,32.7" fill="#f59e0b"/>
  </g>

  <!-- "prompt" - light mode -->
  <g class="text-light">
    <path d="M 135.9,22.8 Q 137.2,22.8 138.0,23.5 Q 138.79999999999998,24.1 139.2,25.3 Q 139.5,26.5 139.5,28.200000000000003 Q 139.5,29.700000000000003 139.1,30.9 Q 138.7,32.1 137.79999999999998,32.8 Q 136.9,33.5 135.6,33.5 Q 134.0,33.5 133.1,32.4 L 133.1,37.1 L 130.9,37.4 L 130.9,23.1 L 132.79999999999998,23.1 L 132.9,24.4 Q 133.5,23.6 134.2,23.2 Q 135.0,22.8 135.9,22.8 M 135.29999999999998,24.5 Q 134.5,24.5 134.0,24.9 Q 133.4,25.4 133.1,25.9 L 133.1,30.700000000000003 Q 133.79999999999998,31.799999999999997 135.1,31.799999999999997 Q 136.2,31.799999999999997 136.7,30.9 Q 137.29999999999998,30.1 137.29999999999998,28.200000000000003 Q 137.29999999999998,26.2 136.79999999999998,25.4 Q 136.29999999999998,24.5 135.29999999999998,24.5" fill="#fafafa"/>
    <path d="M 142.5,33.2 L 142.5,31.700000000000003 L 144.0,31.700000000000003 L 144.0,24.6 L 142.5,24.6 L 142.5,23.1 L 145.7,23.1 L 146.0,25.5 Q 146.6,24.2 147.5,23.5 Q 148.29999999999998,22.8 149.6,22.8 Q 150.1,22.8 150.4,22.9 Q 150.79999999999998,23.0 151.1,23.1 L 150.79999999999998,26.8 L 149.2,26.8 L 149.2,24.8 Q 148.2,24.8 147.4,25.6 Q 146.6,26.5 146.2,27.9 L 146.2,31.700000000000003 L 148.2,31.700000000000003 L 148.2,33.2 L 142.5,33.2" fill="#fafafa"/>
    <path d="M 158.0,22.8 Q 160.2,22.8 161.4,24.3 Q 162.6,25.7 162.6,28.200000000000003 Q 162.6,29.799999999999997 162.0,31.0 Q 161.5,32.2 160.5,32.8 Q 159.5,33.5 158.0,33.5 Q 155.79999999999998,33.5 154.6,32.1 Q 153.4,30.6 153.4,28.200000000000003 Q 153.4,26.6 154.0,25.4 Q 154.5,24.2 155.5,23.5 Q 156.5,22.8 158.0,22.8 M 158.0,24.5 Q 156.79999999999998,24.5 156.29999999999998,25.4 Q 155.7,26.3 155.7,28.200000000000003 Q 155.7,30.1 156.29999999999998,31.0 Q 156.79999999999998,31.799999999999997 158.0,31.799999999999997 Q 159.2,31.799999999999997 159.7,30.9 Q 160.29999999999998,30.1 160.29999999999998,28.200000000000003 Q 160.29999999999998,26.3 159.7,25.4 Q 159.2,24.5 158.0,24.5" fill="#fafafa"/>
    <path d="M 172.5,22.8 Q 173.0,22.8 173.5,23.1 Q 174.0,23.3 174.2,24.0 Q 174.5,24.6 174.5,25.7 L 174.5,33.2 L 172.6,33.2 L 172.6,26.0 Q 172.6,25.2 172.5,24.9 Q 172.4,24.5 171.9,24.5 Q 171.5,24.5 171.1,24.7 Q 170.79999999999998,25.0 170.4,25.5 L 170.4,33.2 L 168.7,33.2 L 168.7,26.0 Q 168.7,25.2 168.5,24.9 Q 168.4,24.5 168.0,24.5 Q 167.6,24.5 167.2,24.7 Q 166.9,25.0 166.5,25.5 L 166.5,33.2 L 164.6,33.2 L 164.6,23.1 L 166.2,23.1 L 166.29999999999998,24.2 Q 166.79999999999998,23.6 167.29999999999998,23.2 Q 167.79999999999998,22.8 168.5,22.8 Q 169.1,22.8 169.5,23.1 Q 170.0,23.4 170.2,24.1 Q 170.7,23.6 171.2,23.2 Q 171.7,22.8 172.5,22.8" fill="#fafafa"/>
    <path d="M 181.9,22.8 Q 183.29999999999998,22.8 184.1,23.5 Q 184.9,24.1 185.29999999999998,25.3 Q 185.6,26.5 185.6,28.200000000000003 Q 185.6,29.700000000000003 185.2,30.9 Q 184.7,32.1 183.9,32.8 Q 183.0,33.5 181.7,33.5 Q 180.1,33.5 179.1,32.4 L 179.1,37.1 L 177.0,37.4 L 177.0,23.1 L 178.9,23.1 L 179.0,24.4 Q 179.6,23.6 180.29999999999998,23.2 Q 181.1,22.8 181.9,22.8 M 181.29999999999998,24.5 Q 180.6,24.5 180.1,24.9 Q 179.5,25.4 179.1,25.9 L 179.1,30.700000000000003 Q 179.9,31.799999999999997 181.1,31.799999999999997 Q 182.2,31.799999999999997 182.79999999999998,30.9 Q 183.4,30.1 183.4,28.200000000000003 Q 183.4,26.2 182.9,25.4 Q 182.4,24.5 181.29999999999998,24.5" fill="#fafafa"/>
    <path d="M 197.0,32.7 Q 196.4,33.1 195.6,33.3 Q 194.9,33.5 194.0,33.5 Q 192.29999999999998,33.5 191.29999999999998,32.6 Q 190.4,31.700000000000003 190.4,30.200000000000003 L 190.4,24.7 L 188.2,24.7 L 188.2,23.1 L 190.4,23.1 L 190.4,20.8 L 192.6,20.6 L 192.6,23.1 L 196.0,23.1 L 195.7,24.7 L 192.6,24.7 L 192.6,30.1 Q 192.6,31.0 193.0,31.4 Q 193.4,31.799999999999997 194.29999999999998,31.799999999999997 Q 194.9,31.799999999999997 195.29999999999998,31.6 Q 195.79999999999998,31.5 196.2,31.299999999999997 L 197.0,32.7" fill="#fafafa"/>
  </g>

  <!-- "prompt" - dark mode -->
  <g class="text-dark">
    <path d="M 135.9,22.8 Q 137.2,22.8 138.0,23.5 Q 138.79999999999998,24.1 139.2,25.3 Q 139.5,26.5 139.5,28.200000000000003 Q 139.5,29.700000000000003 139.1,30.9 Q 138.7,32.1 137.79999999999998,32.8 Q 136.9,33.5 135.6,33.5 Q 134.0,33.5 133.1,32.4 L 133.1,37.1 L 130.9,37.4 L 130.9,23.1 L 132.79999999999998,23.1 L 132.9,24.4 Q 133.5,23.6 134.2,23.2 Q 135.0,22.8 135.9,22.8 M 135.29999999999998,24.5 Q 134.5,24.5 134.0,24.9 Q 133.4,25.4 133.1,25.9 L 133.1,30.700000000000003 Q 133.79999999999998,31.799999999999997 135.1,31.799999999999997 Q 136.2,31.799999999999997 136.7,30.9 Q 137.29999999999998,30.1 137.29999999999998,28.200000000000003 Q 137.29999999999998,26.2 136.79999999999998,25.4 Q 136.29999999999998,24.5 135.29999999999998,24.5" fill="#0c0a09"/>
    <path d="M 142.5,33.2 L 142.5,31.700000000000003 L 144.0,31.700000000000003 L 144.0,24.6 L 142.5,24.6 L 142.5,23.1 L 145.7,23.1 L 146.0,25.5 Q 146.6,24.2 147.5,23.5 Q 148.29999999999998,22.8 149.6,22.8 Q 150.1,22.8 150.4,22.9 Q 150.79999999999998,23.0 151.1,23.1 L 150.79999999999998,26.8 L 149.2,26.8 L 149.2,24.8 Q 148.2,24.8 147.4,25.6 Q 146.6,26.5 146.2,27.9 L 146.2,31.700000000000003 L 148.2,31.700000000000003 L 148.2,33.2 L 142.5,33.2" fill="#0c0a09"/>
    <path d="M 158.0,22.8 Q 160.2,22.8 161.4,24.3 Q 162.6,25.7 162.6,28.200000000000003 Q 162.6,29.799999999999997 162.0,31.0 Q 161.5,32.2 160.5,32.8 Q 159.5,33.5 158.0,33.5 Q 155.79999999999998,33.5 154.6,32.1 Q 153.4,30.6 153.4,28.200000000000003 Q 153.4,26.6 154.0,25.4 Q 154.5,24.2 155.5,23.5 Q 156.5,22.8 158.0,22.8 M 158.0,24.5 Q 156.79999999999998,24.5 156.29999999999998,25.4 Q 155.7,26.3 155.7,28.200000000000003 Q 155.7,30.1 156.29999999999998,31.0 Q 156.79999999999998,31.799999999999997 158.0,31.799999999999997 Q 159.2,31.799999999999997 159.7,30.9 Q 160.29999999999998,30.1 160.29999999999998,28.200000000000003 Q 160.29999999999998,26.3 159.7,25.4 Q 159.2,24.5 158.0,24.5" fill="#0c0a09"/>
    <path d="M 172.5,22.8 Q 173.0,22.8 173.5,23.1 Q 174.0,23.3 174.2,24.0 Q 174.5,24.6 174.5,25.7 L 174.5,33.2 L 172.6,33.2 L 172.6,26.0 Q 172.6,25.2 172.5,24.9 Q 172.4,24.5 171.9,24.5 Q 171.5,24.5 171.1,24.7 Q 170.79999999999998,25.0 170.4,25.5 L 170.4,33.2 L 168.7,33.2 L 168.7,26.0 Q 168.7,25.2 168.5,24.9 Q 168.4,24.5 168.0,24.5 Q 167.6,24.5 167.2,24.7 Q 166.9,25.0 166.5,25.5 L 166.5,33.2 L 164.6,33.2 L 164.6,23.1 L 166.2,23.1 L 166.29999999999998,24.2 Q 166.79999999999998,23.6 167.29999999999998,23.2 Q 167.79999999999998,22.8 168.5,22.8 Q 169.1,22.8 169.5,23.1 Q 170.0,23.4 170.2,24.1 Q 170.7,23.6 171.2,23.2 Q 171.7,22.8 172.5,22.8" fill="#0c0a09"/>
    <path d="M 181.9,22.8 Q 183.29999999999998,22.8 184.1,23.5 Q 184.9,24.1 185.29999999999998,25.3 Q 185.6,26.5 185.6,28.200000000000003 Q 185.6,29.700000000000003 185.2,30.9 Q 184.7,32.1 183.9,32.8 Q 183.0,33.5 181.7,33.5 Q 180.1,33.5 179.1,32.4 L 179.1,37.1 L 177.0,37.4 L 177.0,23.1 L 178.9,23.1 L 179.0,24.4 Q 179.6,23.6 180.29999999999998,23.2 Q 181.1,22.8 181.9,22.8 M 181.29999999999998,24.5 Q 180.6,24.5 180.1,24.9 Q 179.5,25.4 179.1,25.9 L 179.1,30.700000000000003 Q 179.9,31.799999999999997 181.1,31.799999999999997 Q 182.2,31.799999999999997 182.79999999999998,30.9 Q 183.4,30.1 183.4,28.200000000000003 Q 183.4,26.2 182.9,25.4 Q 182.4,24.5 181.29999999999998,24.5" fill="#0c0a09"/>
    <path d="M 197.0,32.7 Q 196.4,33.1 195.6,33.3 Q 194.9,33.5 194.0,33.5 Q 192.29999999999998,33.5 191.29999999999998,32.6 Q 190.4,31.700000000000003 190.4,30.200000000000003 L 190.4,24.7 L 188.2,24.7 L 188.2,23.1 L 190.4,23.1 L 190.4,20.8 L 192.6,20.6 L 192.6,23.1 L 196.0,23.1 L 195.7,24.7 L 192.6,24.7 L 192.6,30.1 Q 192.6,31.0 193.0,31.4 Q 193.4,31.799999999999997 194.29999999999998,31.799999999999997 Q 194.9,31.799999999999997 195.29999999999998,31.6 Q 195.79999999999998,31.5 196.2,31.299999999999997 L 197.0,32.7" fill="#0c0a09"/>
  </g>
</svg>