<svg xmlns="http://www.w3.org/2000/svg" viewBox="0 0 100 100">
  <rect width="100" height="100" rx="0" fill="#0c0a09"/>
  <g>
    <!-- Left bracket -->
    <path d="M 5.0 50.0L 22.0 8.0L 22.0 18.0L 12.0 50.0L 22.0 82.0L 22.0 92.0L 5.0 50.0Z" fill="#f59e0b"/>
    <!-- 'a' -->
    <path d="M 46.5 57.8Q 46.5 59.2 47.0 59.6Q 47.4 60.2 48.2 60.4L 47.2 63.5Q 45.7 63.4 44.5 62.7Q 43.4 62.1 42.8 60.7Q 41.8 61.9 39.9 62.6Q 38.2 63.4 36.2 63.4Q 33.1 63.4 31.1 61.6Q 29.2 59.9 29.2 57.1Q 29.2 53.6 32.1 51.8Q 34.6 50.0 39.5 50.0H 42.4V 48.8Q 42.4 46.7 41.2 45.7Q 40.0 44.9 37.9 44.9Q 36.8 44.9 35.4 45.1Q 33.7 45.5 32.3 45.9L 31.3 42.8Q 33.1 42.2 34.9 41.8Q 36.8 41.4 38.4 41.4Q 42.5 41.4 44.5 43.2Q 46.5 45.0 46.5 48.3ZM 37.5 60.2Q 38.9 60.2 40.2 59.5Q 41.4 58.6 42.4 57.4V 52.6H 40.0Q 36.9 52.6 35.6 53.8Q 34.1 54.9 34.1 56.8Q 34.1 60.2 37.5 60.2Z" fill="#fef3c7"/>
    <!-- 'g' -->
    <path d="M 71.7 39.4L 73.0 43.0Q 71.7 43.5 70.2 43.7Q 68.8 43.8 66.9 43.8Q 68.8 44.8 70.0 46.0Q 70.8 47.2 70.8 49.0Q 70.8 51.1 69.7 52.8Q 68.6 54.5 66.7 55.4Q 65.0 56.2 62.3 56.2Q 61.5 56.2 60.6 56.2Q 60.0 56.1 59.4 55.9Q 58.6 56.6 58.6 57.6Q 58.6 58.2 59.0 58.6Q 59.6 59.2 61.0 59.2H 64.8Q 67.1 59.2 68.8 60.0Q 70.5 60.6 71.5 62.0Q 72.5 63.2 72.5 64.8Q 72.5 67.9 69.9 69.7Q 67.3 71.4 62.3 71.4Q 58.8 71.4 56.7 70.6Q 54.6 69.8 53.8 68.4Q 53.0 66.8 53.0 64.6H 57.0Q 57.0 65.8 57.5 66.5Q 58.2 67.4 59.4 67.6Q 60.7 68.0 62.9 68.0Q 66.2 68.0 67.6 67.0Q 68.9 66.0 68.9 64.5Q 68.9 63.2 67.8 62.5Q 66.4 61.7 64.5 61.7H 60.6Q 57.6 61.7 56.2 60.6Q 54.8 59.2 54.8 57.5Q 54.8 55.2 57.0 53.8Q 55.3 52.7 54.4 51.3Q 53.5 49.8 53.5 47.8Q 53.5 45.6 54.7 43.9Q 55.8 42.0 57.9 41.1Q 59.8 40.2 62.3 40.2Q 64.8 40.4 66.6 40.0Q 68.4 39.6 69.8 38.8Q 71.0 38.4 71.7 39.4ZM 62.3 44.4Q 60.2 44.4 59.0 45.6Q 57.8 46.8 57.8 48.8Q 57.8 50.8 59.0 52.0Q 60.2 53.0 62.3 53.0Q 64.4 53.0 65.5 52.0Q 66.5 50.8 66.5 48.8Q 66.5 44.4 62.3 44.4Z" fill="#fef3c7"/>
    <!-- Right bracket -->
    <path d="M 95.0 50.0L 78.0 8.0L 78.0 18.0L 88.0 50.0L 78.0 82.0L 78.0 92.0L 95.0 50.0Z" fill="#f59e0b"/>
  </g>
</svg>