<svg xmlns="http://www.w3.org/2000/svg" viewBox="0 0 100 100">
  <rect width="100" height="100" rx="0" fill="#0c0a09"/>
  <g>
    <!-- Left bracket -->
    <path d="M 3.0 50.0L 20.8 6.1L 20.8 16.6L 10.3 50.0L 20.8 83.4L 20.8 93.9L 3.0 50.0Z" fill="#f59e0b"/>
    <!-- 'a' -->
    <path d="M 46.3 58.1Q 46.3 59.6 46.9 60.0Q 47.3 60.7 48.1 60.9L 47.1 64.1Q 45.5 64.0 44.3 63.3Q 43.1 62.6 42.5 61.2Q 41.4 62.4 39.5 63.2Q 37.7 64.0 35.6 64.0Q 32.3 64.0 30.3 62.1Q 28.3 60.3 28.3 57.4Q 28.3 53.8 31.3 51.9Q 33.9 50.0 39.0 50.0H 42.1V 48.7Q 42.1 46.6 40.8 45.5Q 39.6 44.7 37.4 44.7Q 36.2 44.7 34.8 44.9Q 33.0 45.3 31.5 45.7L 30.5 42.5Q 32.3 41.9 34.2 41.4Q 36.2 41.0 37.9 41.0Q 42.2 41.0 44.3 42.9Q 46.3 44.8 46.3 48.2ZM 36.9 60.7Q 38.4 60.7 39.8 59.9Q 41.0 59.0 42.1 57.7V 52.7H 39.6Q 36.3 52.7 35.0 54.0Q 33.4 55.1 33.4 57.1Q 33.4 60.7 36.9 60.7Z" fill="#fef3c7"/>
    <!-- 'g' -->
    <path d="M 72.7 38.9L 74.0 42.7Q 72.7 43.2 71.1 43.4Q 69.6 43.5 67.7 43.5Q 69.6 44.6 70.9 45.8Q 71.7 47.1 71.7 49.0Q 71.7 51.1 70.6 52.9Q 69.4 54.7 67.4 55.6Q 65.7 56.5 62.8 56.5Q 62.0 56.5 61.1 56.5Q 60.4 56.4 59.8 56.2Q 59.0 56.9 59.0 57.9Q 59.0 58.6 59.4 59.0Q 60.0 59.6 61.5 59.6H 65.5Q 67.9 59.6 69.6 60.4Q 71.4 61.1 72.5 62.5Q 73.5 63.8 73.5 65.5Q 73.5 68.7 70.8 70.6Q 68.1 72.4 62.8 72.4Q 59.2 72.4 57.0 71.5Q 54.8 70.7 54.0 69.2Q 53.1 67.5 53.1 65.2H 57.3Q 57.3 66.5 57.8 67.2Q 58.6 68.2 59.8 68.4Q 61.2 68.8 63.5 68.8Q 66.9 68.8 68.4 67.8Q 69.7 66.7 69.7 65.1Q 69.7 63.8 68.6 63.1Q 67.1 62.2 65.1 62.2H 61.1Q 57.9 62.2 56.5 61.1Q 55.0 59.6 55.0 57.8Q 55.0 55.4 57.3 54.0Q 55.5 52.8 54.6 51.4Q 53.7 49.8 53.7 47.7Q 53.7 45.4 54.9 43.6Q 56.1 41.6 58.3 40.7Q 60.2 39.8 62.8 39.8Q 65.5 40.0 67.3 39.6Q 69.2 39.1 70.7 38.3Q 71.9 37.9 72.7 38.9ZM 62.8 44.2Q 60.7 44.2 59.4 45.4Q 58.1 46.7 58.1 48.7Q 58.1 50.8 59.4 52.1Q 60.7 53.1 62.8 53.1Q 65.0 53.1 66.2 52.1Q 67.2 50.8 67.2 48.7Q 67.2 44.2 62.8 44.2Z" fill="#fef3c7"/>
    <!-- Right bracket -->
    <path d="M 97.0 50.0L 79.2 6.1L 79.2 16.6L 89.7 50.0L 79.2 83.4L 79.2 93.9L 97.0 50.0Z" fill="#f59e0b"/>
  </g>
</svg>